<svg width="61" height="21" viewBox="0 0 61 21" fill="none" xmlns="http://www.w3.org/2000/svg">
<path d="M3.192 16V13.672H0.552V16H3.192ZM7.30144 13.696V0.0639992H4.66144V16.024H16.2774V13.696H7.30144ZM23.541 3.712C19.605 3.712 16.413 6.544 16.413 10.048C16.413 13.528 19.605 16.36 23.541 16.36C27.501 16.36 30.693 13.528 30.693 10.048C30.693 6.544 27.501 3.712 23.541 3.712ZM23.541 14.032C21.069 14.032 19.053 12.232 19.053 10.048C19.053 7.84 21.069 6.04 23.541 6.04C26.037 6.04 28.029 7.84 28.029 10.048C28.029 12.232 26.037 14.032 23.541 14.032ZM42.9358 4.048V4.216C42.9358 4.6 43.0318 4.96 43.1758 5.296L43.7758 6.64L43.4398 6.784L42.9838 5.728C42.6958 5.128 42.2158 4.624 41.5918 4.36C40.6558 3.952 39.5758 3.712 38.4478 3.712C34.5118 3.712 31.3198 6.544 31.3198 10.048C31.3198 13.528 33.8398 16.36 36.9598 16.36C40.0798 16.36 42.5998 13.816 42.5998 10.696H39.9598C39.9598 12.544 38.6158 14.032 36.9598 14.032C35.3038 14.032 33.9598 12.232 33.9598 10.048C33.9598 7.84 35.9758 6.04 38.4478 6.04C40.9438 6.04 42.9358 7.84 42.9358 10.048V14.032C42.9358 16.24 40.9438 18.016 38.4478 18.016H34.2958V20.344H38.4478C42.4078 20.344 45.5998 17.512 45.5998 14.032V4.048H42.9358ZM53.8223 3.712C49.8863 3.712 46.6943 6.544 46.6943 10.048C46.6943 13.528 49.8863 16.36 53.8223 16.36C57.7823 16.36 60.9743 13.528 60.9743 10.048C60.9743 6.544 57.7823 3.712 53.8223 3.712ZM53.8223 14.032C51.3503 14.032 49.3343 12.232 49.3343 10.048C49.3343 7.84 51.3503 6.04 53.8223 6.04C56.3183 6.04 58.3103 7.84 58.3103 10.048C58.3103 12.232 56.3183 14.032 53.8223 14.032Z" fill="black"/>
</svg>
